<?xml version="1.0" encoding="utf-8"?>
<!-- Generator: Adobe Illustrator 20.0.0, SVG Export Plug-In . SVG Version: 6.00 Build 0)  -->
<svg version="1.1" id="Layer_1" xmlns="http://www.w3.org/2000/svg" xmlns:xlink="http://www.w3.org/1999/xlink" x="0px" y="0px"
	 viewBox="0 0 1193 346" style="enable-background:new 0 0 1193 346;" xml:space="preserve">
<style type="text/css">
	.st0{fill:none;stroke:url(#Combined-Shape-Copy-3_2_);stroke-width:2;}
	.st1{fill:url(#Combined-Shape-Copy-4_2_);}
	.st2{fill:none;stroke:url(#Combined-Shape-Copy-3_3_);stroke-width:2;}
	.st3{fill:url(#Combined-Shape-Copy-4_3_);}
	.st4{fill:none;stroke:url(#Combined-Shape_2_);stroke-width:2;}
	.st5{fill:url(#Combined-Shape_4_);fill-opacity:0.3;}
	.st6{fill:url(#globe_2_);}
	.st7{fill:none;stroke:#CCCCCC;}
	.st8{fill:#CCCCCC;}
	.st9{fill:url(#globe_3_);}
	.st10{fill:url(#Oval-9-Copy-6_1_);}
	.st11{fill:url(#Oval-9-Copy_1_);}
	.st12{fill:url(#Oval-9-Copy-2_1_);}
	.st13{fill:url(#Path-9_1_);}
	.st14{fill:url(#Path-9_2_);}
	.st15{fill:url(#Path-9_6_);}
	.st16{fill:url(#Rectangle-2_1_);}
	.st17{fill:url(#Rectangle-2_4_);}
	.st18{fill:url(#Rectangle-2-Copy_2_);}
	#Group-24 {
		opacity: 0.5;
		filter: blur(100px);
	}
</style>
<title>Group 6</title>
<desc>Created with Sketch.</desc>
<defs>
  <filter id="blurry" x="0%" y="0%">
    <feGaussianBlur stdDeviation="2"/>
  </filter>
</defs>
<g id="Group-24" filter="url(#blurry)">
	
		<radialGradient id="Combined-Shape-Copy-3_2_" cx="571.7684" cy="-245.9816" r="0.4203" gradientTransform="matrix(891 0 0 -1202 -509053 -295956)" gradientUnits="userSpaceOnUse">
		<stop  offset="0" style="stop-color:#000000;stop-opacity:0.5"/>
		<stop  offset="1" style="stop-color:#000000;stop-opacity:0"/>
	</radialGradient>
	<path id="Combined-Shape-Copy-3" class="st0" d="M27.1-99.8l152.9,17.2l53.5-143.2v-63.2H27.1 M521.3-72.4L633.5-152l-157.2-70.2
		l-4-38l-90.3-29l7.2,29.5L521.3-72.4z M315.1,73.9L521-72.2l64.4,34.5L315.1,73.9L315.1,73.9z M274.3-72.4L313.5,74L210.3-25.1
		L27.2-100.3L274.3-72.4z M274.2-72.8l-63.4,46.9l56.2-73.7L274.2-72.8L274.2-72.8z M267.2-100.3l-33.7-126.1l80.7-26.7l11.5,76.2
		L267.2-100.3z M325.9-177.2l-92.2-49.5L325.9-177.2L274.6-72.7l193.1,83.5L464.9,346l49.2-228.2l75.2,153L325.9-177.2z M27-289.3
		L27-289.3l0.2,0.1l0.2,0l0-0.1l-0.2,0L27-289.3 M377.5-149.2L274.5-73l-7.2-26.9l58.6-76.9L377.5-149.2z M377.8-149.4l-51.6-27.7
		l63.1-82.7L476-222L377.8-149.4L377.8-149.4z M585.4-37.7l-64.7-34.7L633.5-152L585.4-37.7L585.4-37.7z M514.1,117.8L467.7,10.9
		l71.1-29.3L514.1,117.8L514.1,117.8z M632.1,56.4l-93.4-74.8l46.6-19.3L632.1,56.4L632.1,56.4z M313.9,74.3L27.2-100.3l581.3,238.4
		l-19.1,132.7L538.7-18.4 M233.6-289.1L27.3-100.4V-163L233.6-289.1z M322.8-434.1l-104,90L382-289.3l-67.8,36.1L322.8-434.1z
		 M514.1-599.5l-191,165.2l-67.4-28.2L514.1-599.5L514.1-599.5z M568.7-457.8l-53.1-142l112.2,88.8L918-737L568.7-457.8z
		 M568.8-457.5l58.6-52.7l-48.9,78.7L568.8-457.5L568.8-457.5z M578.4-430.7l45.7,122.3l-77.8,34.4l-18.7-74.7L578.4-430.7z
		 M527.4-348.5l96.6,40.4L527.4-348.5l41-109l-200.2-64.6L338.8-856l-27.1,231.9l-89.6-145.1L527.4-348.5z M27.4-289.2L27.4-289.2
		l-0.2-0.1l-0.2,0l0,0.1l0.2,0L27.4-289.2 M473.3-371.5l95.2-85.7l9.8,26.1l-51,82.2L473.3-371.5z M473.1-371.3l54.1,22.6
		l-54.8,88.4l-90-29.3L473.1-371.3L473.1-371.3z M200.2-551.7l100.1,65.5l-44.6,23.7L200.2-551.7L200.2-551.7z M255.7-462.5
		l67.7,28.3l-104.6,90.1L255.7-462.5L255.7-462.5z M311.8-624.1l56.5,102l-67.9,35.9L311.8-624.1L311.8-624.1z M515.2-600L918-737
		l-702.3,94.4l6.5-126.6l78.1,283 M27,139.2l294.2-428.3L27,139.2z"/>
	
		<linearGradient id="Combined-Shape-Copy-4_2_" gradientUnits="userSpaceOnUse" x1="572.4197" y1="-245.6152" x2="571.1406" y2="-246.3708" gradientTransform="matrix(621 0 0 -1142 -354622 -281203)">
		<stop  offset="0" style="stop-color:#614767"/>
		<stop  offset="1" style="stop-color:#000000;stop-opacity:7.492641e-02"/>
	</linearGradient>
	<path id="Combined-Shape-Copy-4" class="st1" d="M496.4-384.8c4.1,0,7.4-3.3,7.4-7.4c0-4.1-3.3-7.4-7.4-7.4c-4.1,0-7.4,3.3-7.4,7.4
		C489-388.1,492.3-384.8,496.4-384.8z M382-281.6c4.1,0,7.4-3.3,7.4-7.4s-3.3-7.4-7.4-7.4c-4.1,0-7.4,3.3-7.4,7.4
		S377.9-281.6,382-281.6z M26.6-92.2c4.1,0,7.4-3.3,7.4-7.4s-3.3-7.4-7.4-7.4s-7.4,3.3-7.4,7.4S22.5-92.2,26.6-92.2z M410.3-501.6
		c4.1,0,7.4-3.3,7.4-7.4c0-4.1-3.3-7.4-7.4-7.4c-4.1,0-7.4,3.3-7.4,7.4C402.9-504.9,406.2-501.6,410.3-501.6z M25.4,147.5
		c4.1,0,7.4-3.3,7.4-7.4s-3.3-7.4-7.4-7.4S18,136,18,140.1S21.3,147.5,25.4,147.5z M471.8-253.3c4.1,0,7.4-3.3,7.4-7.4
		s-3.3-7.4-7.4-7.4c-4.1,0-7.4,3.3-7.4,7.4S467.7-253.3,471.8-253.3z M468.1,18.4c4.1,0,7.4-3.3,7.4-7.4s-3.3-7.4-7.4-7.4
		s-7.4,3.3-7.4,7.4S464,18.4,468.1,18.4z M538.2-12.3c4.1,0,7.4-3.3,7.4-7.4c0-4.1-3.3-7.4-7.4-7.4s-7.4,3.3-7.4,7.4
		C530.8-15.6,534.1-12.3,538.2-12.3z M314.4,82.3c4.1,0,7.4-3.3,7.4-7.4c0-4.1-3.3-7.4-7.4-7.4c-4.1,0-7.4,3.3-7.4,7.4
		C307,79,310.3,82.3,314.4,82.3z M320.5-422.9c6.1,0,11.1-5,11.1-11.1c0-6.1-5-11.1-11.1-11.1s-11.1,5-11.1,11.1
		C309.4-427.9,314.4-422.9,320.5-422.9z M254.1-454.9c4.1,0,7.4-3.3,7.4-7.4c0-4.1-3.3-7.4-7.4-7.4c-4.1,0-7.4,3.3-7.4,7.4
		C246.7-458.2,250-454.9,254.1-454.9z M200-544.6c4.1,0,7.4-3.3,7.4-7.4c0-4.1-3.3-7.4-7.4-7.4c-4.1,0-7.4,3.3-7.4,7.4
		C192.6-547.9,195.9-544.6,200-544.6z M299.6-479.5c4.1,0,7.4-3.3,7.4-7.4c0-4.1-3.3-7.4-7.4-7.4c-4.1,0-7.4,3.3-7.4,7.4
		C292.2-482.8,295.5-479.5,299.6-479.5z M339-848.2c4.1,0,7.4-3.3,7.4-7.4S343-863,339-863c-4.1,0-7.4,3.3-7.4,7.4
		S334.9-848.2,339-848.2z M368.5-510.2c6.8,0,12.3-5.5,12.3-12.3c0-6.8-5.5-12.3-12.3-12.3c-6.8,0-12.3,5.5-12.3,12.3
		C356.2-515.7,361.7-510.2,368.5-510.2z M525.9-336.9c6.8,0,12.3-5.5,12.3-12.3c0-6.8-5.5-12.3-12.3-12.3c-6.8,0-12.3,5.5-12.3,12.3
		C513.6-342.4,519.1-336.9,525.9-336.9z M589.8,279c6.8,0,12.3-5.5,12.3-12.3c0-6.8-5.5-12.3-12.3-12.3s-12.3,5.5-12.3,12.3
		C577.5,273.5,583,279,589.8,279z M209.8-11.1c6.8,0,12.3-5.5,12.3-12.3s-5.5-12.3-12.3-12.3s-12.3,5.5-12.3,12.3
		S203-11.1,209.8-11.1z M322.4-286.5c2.4,0,4.3-1.9,4.3-4.3c0-2.4-1.9-4.3-4.3-4.3c-2.4,0-4.3,1.9-4.3,4.3
		C318-288.4,320-286.5,322.4-286.5z M216.6-339.3c2.4,0,4.3-1.9,4.3-4.3c0-2.4-1.9-4.3-4.3-4.3s-4.3,1.9-4.3,4.3
		C212.3-341.3,214.2-339.3,216.6-339.3z M26-285.2c2.4,0,4.3-1.9,4.3-4.3s-1.9-4.3-4.3-4.3s-4.3,1.9-4.3,4.3S23.6-285.2,26-285.2z
		 M521.6-68.9c2.4,0,4.3-1.9,4.3-4.3c0-2.4-1.9-4.3-4.3-4.3s-4.3,1.9-4.3,4.3C517.3-70.8,519.2-68.9,521.6-68.9z M634.7,63.9
		c2.4,0,4.3-1.9,4.3-4.3c0-2.4-1.9-4.3-4.3-4.3s-4.3,1.9-4.3,4.3C630.4,61.9,632.3,63.9,634.7,63.9z M472.4-367.6
		c2.4,0,4.3-1.9,4.3-4.3c0-2.4-1.9-4.3-4.3-4.3s-4.3,1.9-4.3,4.3C468.1-369.5,470-367.6,472.4-367.6z M546.2-269.3
		c2.4,0,4.3-1.9,4.3-4.3c0-2.4-1.9-4.3-4.3-4.3s-4.3,1.9-4.3,4.3C541.9-271.2,543.8-269.3,546.2-269.3z M316.8-302.4
		c4.1,0,7.4-3.3,7.4-7.4c0-4.1-3.3-7.4-7.4-7.4c-4.1,0-7.4,3.3-7.4,7.4C309.4-305.8,312.7-302.4,316.8-302.4z"/>
	
		<radialGradient id="Combined-Shape-Copy-3_3_" cx="571.7684" cy="-245.9816" r="0.4921" gradientTransform="matrix(891 0 0 -1202 -509053 -295956)" gradientUnits="userSpaceOnUse">
		<stop  offset="0" style="stop-color:#000000;stop-opacity:0.3"/>
		<stop  offset="1" style="stop-color:#000000;stop-opacity:0"/>
	</radialGradient>
	<path id="Combined-Shape-Copy-3_1_" class="st2" d="M27.1-99.8l152.9,17.2l53.5-143.2v-63.2H27.1 M521.3-72.4L633.5-152
		l-157.2-70.2l-4-38l-90.3-29l7.2,29.5L521.3-72.4z M315.1,73.9L521-72.2l64.4,34.5L315.1,73.9L315.1,73.9z M274.3-72.4L313.5,74
		L210.3-25.1L27.2-100.3L274.3-72.4z M274.2-72.8l-63.4,46.9l56.2-73.7L274.2-72.8L274.2-72.8z M267.2-100.3l-33.7-126.1l80.7-26.7
		l11.5,76.2L267.2-100.3z M325.9-177.2l-92.2-49.5L325.9-177.2L274.6-72.7l193.1,83.5L464.9,346l49.2-228.2l75.2,153L325.9-177.2z
		 M27-289.3L27-289.3l0.2,0.1l0.2,0l0-0.1l-0.2,0L27-289.3 M377.5-149.2L274.5-73l-7.2-26.9l58.6-76.9L377.5-149.2z M377.8-149.4
		l-51.6-27.7l63.1-82.7L476-222L377.8-149.4L377.8-149.4z M585.4-37.7l-64.7-34.7L633.5-152L585.4-37.7L585.4-37.7z M514.1,117.8
		L467.7,10.9l71.1-29.3L514.1,117.8L514.1,117.8z M632.1,56.4l-93.4-74.8l46.6-19.3L632.1,56.4L632.1,56.4z M313.9,74.3L27.2-100.3
		l581.3,238.4l-19.1,132.7L538.7-18.4 M233.6-289.1L27.3-100.4V-163L233.6-289.1z M322.8-434.1l-104,90L382-289.3l-67.8,36.1
		L322.8-434.1z M514.1-599.5l-191,165.2l-67.4-28.2L514.1-599.5L514.1-599.5z M568.7-457.8l-53.1-142l112.2,88.8L918-737
		L568.7-457.8z M568.8-457.5l58.6-52.7l-48.9,78.7L568.8-457.5L568.8-457.5z M578.4-430.7l45.7,122.3l-77.8,34.4l-18.7-74.7
		L578.4-430.7z M527.4-348.5l96.6,40.4L527.4-348.5l41-109l-200.2-64.6L338.8-856l-27.1,231.9l-89.6-145.1L527.4-348.5z M27.4-289.2
		L27.4-289.2l-0.2-0.1l-0.2,0l0,0.1l0.2,0L27.4-289.2 M473.3-371.5l95.2-85.7l9.8,26.1l-51,82.2L473.3-371.5z M473.1-371.3
		l54.1,22.6l-54.8,88.4l-90-29.3L473.1-371.3L473.1-371.3z M200.2-551.7l100.1,65.5l-44.6,23.7L200.2-551.7L200.2-551.7z
		 M255.7-462.5l67.7,28.3l-104.6,90.1L255.7-462.5L255.7-462.5z M311.8-624.1l56.5,102l-67.9,35.9L311.8-624.1L311.8-624.1z
		 M515.2-600L918-737l-702.3,94.4l6.5-126.6l78.1,283 M27,139.2l294.2-428.3L27,139.2z"/>
	
		<linearGradient id="Combined-Shape-Copy-4_3_" gradientUnits="userSpaceOnUse" x1="571.071" y1="-246.2813" x2="572.3239" y2="-245.7656" gradientTransform="matrix(621 0 0 -1142 -354622 -281203)">
		<stop  offset="0" style="stop-color:#BCBCBC"/>
		<stop  offset="1" style="stop-color:#878787"/>
	</linearGradient>
	<path id="Combined-Shape-Copy-4_1_" class="st3" d="M496.4-384.8c4.1,0,7.4-3.3,7.4-7.4c0-4.1-3.3-7.4-7.4-7.4
		c-4.1,0-7.4,3.3-7.4,7.4C489-388.1,492.3-384.8,496.4-384.8z M382-281.6c4.1,0,7.4-3.3,7.4-7.4s-3.3-7.4-7.4-7.4
		c-4.1,0-7.4,3.3-7.4,7.4S377.9-281.6,382-281.6z M26.6-92.2c4.1,0,7.4-3.3,7.4-7.4s-3.3-7.4-7.4-7.4s-7.4,3.3-7.4,7.4
		S22.5-92.2,26.6-92.2z M410.3-501.6c4.1,0,7.4-3.3,7.4-7.4c0-4.1-3.3-7.4-7.4-7.4c-4.1,0-7.4,3.3-7.4,7.4
		C402.9-504.9,406.2-501.6,410.3-501.6z M25.4,147.5c4.1,0,7.4-3.3,7.4-7.4s-3.3-7.4-7.4-7.4S18,136,18,140.1S21.3,147.5,25.4,147.5
		z M471.8-253.3c4.1,0,7.4-3.3,7.4-7.4s-3.3-7.4-7.4-7.4c-4.1,0-7.4,3.3-7.4,7.4S467.7-253.3,471.8-253.3z M468.1,18.4
		c4.1,0,7.4-3.3,7.4-7.4s-3.3-7.4-7.4-7.4s-7.4,3.3-7.4,7.4S464,18.4,468.1,18.4z M538.2-12.3c4.1,0,7.4-3.3,7.4-7.4
		c0-4.1-3.3-7.4-7.4-7.4s-7.4,3.3-7.4,7.4C530.8-15.6,534.1-12.3,538.2-12.3z M314.4,82.3c4.1,0,7.4-3.3,7.4-7.4
		c0-4.1-3.3-7.4-7.4-7.4c-4.1,0-7.4,3.3-7.4,7.4C307,79,310.3,82.3,314.4,82.3z M320.5-422.9c6.1,0,11.1-5,11.1-11.1
		c0-6.1-5-11.1-11.1-11.1s-11.1,5-11.1,11.1C309.4-427.9,314.4-422.9,320.5-422.9z M254.1-454.9c4.1,0,7.4-3.3,7.4-7.4
		c0-4.1-3.3-7.4-7.4-7.4c-4.1,0-7.4,3.3-7.4,7.4C246.7-458.2,250-454.9,254.1-454.9z M200-544.6c4.1,0,7.4-3.3,7.4-7.4
		c0-4.1-3.3-7.4-7.4-7.4c-4.1,0-7.4,3.3-7.4,7.4C192.6-547.9,195.9-544.6,200-544.6z M299.6-479.5c4.1,0,7.4-3.3,7.4-7.4
		c0-4.1-3.3-7.4-7.4-7.4c-4.1,0-7.4,3.3-7.4,7.4C292.2-482.8,295.5-479.5,299.6-479.5z M339-848.2c4.1,0,7.4-3.3,7.4-7.4
		S343-863,339-863c-4.1,0-7.4,3.3-7.4,7.4S334.9-848.2,339-848.2z M368.5-510.2c6.8,0,12.3-5.5,12.3-12.3c0-6.8-5.5-12.3-12.3-12.3
		c-6.8,0-12.3,5.5-12.3,12.3C356.2-515.7,361.7-510.2,368.5-510.2z M525.9-336.9c6.8,0,12.3-5.5,12.3-12.3c0-6.8-5.5-12.3-12.3-12.3
		c-6.8,0-12.3,5.5-12.3,12.3C513.6-342.4,519.1-336.9,525.9-336.9z M589.8,279c6.8,0,12.3-5.5,12.3-12.3c0-6.8-5.5-12.3-12.3-12.3
		s-12.3,5.5-12.3,12.3C577.5,273.5,583,279,589.8,279z M209.8-11.1c6.8,0,12.3-5.5,12.3-12.3s-5.5-12.3-12.3-12.3
		s-12.3,5.5-12.3,12.3S203-11.1,209.8-11.1z M322.4-286.5c2.4,0,4.3-1.9,4.3-4.3c0-2.4-1.9-4.3-4.3-4.3c-2.4,0-4.3,1.9-4.3,4.3
		C318-288.4,320-286.5,322.4-286.5z M216.6-339.3c2.4,0,4.3-1.9,4.3-4.3c0-2.4-1.9-4.3-4.3-4.3s-4.3,1.9-4.3,4.3
		C212.3-341.3,214.2-339.3,216.6-339.3z M26-285.2c2.4,0,4.3-1.9,4.3-4.3s-1.9-4.3-4.3-4.3s-4.3,1.9-4.3,4.3S23.6-285.2,26-285.2z
		 M521.6-68.9c2.4,0,4.3-1.9,4.3-4.3c0-2.4-1.9-4.3-4.3-4.3s-4.3,1.9-4.3,4.3C517.3-70.8,519.2-68.9,521.6-68.9z M634.7,63.9
		c2.4,0,4.3-1.9,4.3-4.3c0-2.4-1.9-4.3-4.3-4.3s-4.3,1.9-4.3,4.3C630.4,61.9,632.3,63.9,634.7,63.9z M472.4-367.6
		c2.4,0,4.3-1.9,4.3-4.3c0-2.4-1.9-4.3-4.3-4.3s-4.3,1.9-4.3,4.3C468.1-369.5,470-367.6,472.4-367.6z M546.2-269.3
		c2.4,0,4.3-1.9,4.3-4.3c0-2.4-1.9-4.3-4.3-4.3s-4.3,1.9-4.3,4.3C541.9-271.2,543.8-269.3,546.2-269.3z M316.8-302.4
		c4.1,0,7.4-3.3,7.4-7.4c0-4.1-3.3-7.4-7.4-7.4c-4.1,0-7.4,3.3-7.4,7.4C309.4-305.8,312.7-302.4,316.8-302.4z"/>
	
		<radialGradient id="Combined-Shape_2_" cx="571.7684" cy="-245.9816" r="0.4203" gradientTransform="matrix(891 0 0 -1202 -509053 -295956)" gradientUnits="userSpaceOnUse">
		<stop  offset="0" style="stop-color:#000000;stop-opacity:0.1"/>
		<stop  offset="1" style="stop-color:#000000;stop-opacity:0"/>
	</radialGradient>
	<path id="Combined-Shape" class="st4" d="M27.1-99.8l152.9,17.2l53.5-143.2v-63.2H27.1 M521.3-72.4L633.5-152l-157.2-70.2l-4-38
		l-90.3-29l7.2,29.5L521.3-72.4z M315.1,73.9L521-72.2l64.4,34.5L315.1,73.9L315.1,73.9z M274.3-72.4L313.5,74L210.3-25.1
		L27.2-100.3L274.3-72.4z M274.2-72.8l-63.4,46.9l56.2-73.7L274.2-72.8L274.2-72.8z M267.2-100.3l-33.7-126.1l80.7-26.7l11.5,76.2
		L267.2-100.3z M325.9-177.2l-92.2-49.5L325.9-177.2L274.6-72.7l193.1,83.5L464.9,346l49.2-228.2l75.2,153L325.9-177.2z M27-289.3
		L27-289.3l0.2,0.1l0.2,0l0-0.1l-0.2,0L27-289.3 M377.5-149.2L274.5-73l-7.2-26.9l58.6-76.9L377.5-149.2z M377.8-149.4l-51.6-27.7
		l63.1-82.7L476-222L377.8-149.4L377.8-149.4z M585.4-37.7l-64.7-34.7L633.5-152L585.4-37.7L585.4-37.7z M514.1,117.8L467.7,10.9
		l71.1-29.3L514.1,117.8L514.1,117.8z M632.1,56.4l-93.4-74.8l46.6-19.3L632.1,56.4L632.1,56.4z M313.9,74.3L27.2-100.3l581.3,238.4
		l-19.1,132.7L538.7-18.4 M233.6-289.1L27.3-100.4V-163L233.6-289.1z M322.8-434.1l-104,90L382-289.3l-67.8,36.1L322.8-434.1z
		 M514.1-599.5l-191,165.2l-67.4-28.2L514.1-599.5L514.1-599.5z M568.7-457.8l-53.1-142l112.2,88.8L918-737L568.7-457.8z
		 M568.8-457.5l58.6-52.7l-48.9,78.7L568.8-457.5L568.8-457.5z M578.4-430.7l45.7,122.3l-77.8,34.4l-18.7-74.7L578.4-430.7z
		 M527.4-348.5l96.6,40.4L527.4-348.5l41-109l-200.2-64.6L338.8-856l-27.1,231.9l-89.6-145.1L527.4-348.5z M27.4-289.2L27.4-289.2
		l-0.2-0.1l-0.2,0l0,0.1l0.2,0L27.4-289.2 M473.3-371.5l95.2-85.7l9.8,26.1l-51,82.2L473.3-371.5z M473.1-371.3l54.1,22.6
		l-54.8,88.4l-90-29.3L473.1-371.3L473.1-371.3z M200.2-551.7l100.1,65.5l-44.6,23.7L200.2-551.7L200.2-551.7z M255.7-462.5
		l67.7,28.3l-104.6,90.1L255.7-462.5L255.7-462.5z M311.8-624.1l56.5,102l-67.9,35.9L311.8-624.1L311.8-624.1z M515.2-600L918-737
		l-702.3,94.4l6.5-126.6l78.1,283 M27,139.2l294.2-428.3L27,139.2z"/>
	
		<linearGradient id="Combined-Shape_4_" gradientUnits="userSpaceOnUse" x1="571.7408" y1="-246.61" x2="571.2095" y2="-245.5946" gradientTransform="matrix(621 0 0 -1142 -354622 -281203)">
		<stop  offset="0" style="stop-color:#000000;stop-opacity:0"/>
		<stop  offset="0.2767" style="stop-color:#000000;stop-opacity:0.1975"/>
		<stop  offset="1" style="stop-color:#000000;stop-opacity:0.2"/>
	</linearGradient>
	<path id="Combined-Shape_1_" class="st5" d="M496.4-384.8c4.1,0,7.4-3.3,7.4-7.4c0-4.1-3.3-7.4-7.4-7.4c-4.1,0-7.4,3.3-7.4,7.4
		C489-388.1,492.3-384.8,496.4-384.8z M382-281.6c4.1,0,7.4-3.3,7.4-7.4s-3.3-7.4-7.4-7.4c-4.1,0-7.4,3.3-7.4,7.4
		S377.9-281.6,382-281.6z M26.6-92.2c4.1,0,7.4-3.3,7.4-7.4s-3.3-7.4-7.4-7.4s-7.4,3.3-7.4,7.4S22.5-92.2,26.6-92.2z M410.3-501.6
		c4.1,0,7.4-3.3,7.4-7.4c0-4.1-3.3-7.4-7.4-7.4c-4.1,0-7.4,3.3-7.4,7.4C402.9-504.9,406.2-501.6,410.3-501.6z M25.4,147.5
		c4.1,0,7.4-3.3,7.4-7.4s-3.3-7.4-7.4-7.4S18,136,18,140.1S21.3,147.5,25.4,147.5z M471.8-253.3c4.1,0,7.4-3.3,7.4-7.4
		s-3.3-7.4-7.4-7.4c-4.1,0-7.4,3.3-7.4,7.4S467.7-253.3,471.8-253.3z M468.1,18.4c4.1,0,7.4-3.3,7.4-7.4s-3.3-7.4-7.4-7.4
		s-7.4,3.3-7.4,7.4S464,18.4,468.1,18.4z M538.2-12.3c4.1,0,7.4-3.3,7.4-7.4c0-4.1-3.3-7.4-7.4-7.4s-7.4,3.3-7.4,7.4
		C530.8-15.6,534.1-12.3,538.2-12.3z M314.4,82.3c4.1,0,7.4-3.3,7.4-7.4c0-4.1-3.3-7.4-7.4-7.4c-4.1,0-7.4,3.3-7.4,7.4
		C307,79,310.3,82.3,314.4,82.3z M320.5-422.9c6.1,0,11.1-5,11.1-11.1c0-6.1-5-11.1-11.1-11.1s-11.1,5-11.1,11.1
		C309.4-427.9,314.4-422.9,320.5-422.9z M254.1-454.9c4.1,0,7.4-3.3,7.4-7.4c0-4.1-3.3-7.4-7.4-7.4c-4.1,0-7.4,3.3-7.4,7.4
		C246.7-458.2,250-454.9,254.1-454.9z M200-544.6c4.1,0,7.4-3.3,7.4-7.4c0-4.1-3.3-7.4-7.4-7.4c-4.1,0-7.4,3.3-7.4,7.4
		C192.6-547.9,195.9-544.6,200-544.6z M299.6-479.5c4.1,0,7.4-3.3,7.4-7.4c0-4.1-3.3-7.4-7.4-7.4c-4.1,0-7.4,3.3-7.4,7.4
		C292.2-482.8,295.5-479.5,299.6-479.5z M339-848.2c4.1,0,7.4-3.3,7.4-7.4S343-863,339-863c-4.1,0-7.4,3.3-7.4,7.4
		S334.9-848.2,339-848.2z M368.5-510.2c6.8,0,12.3-5.5,12.3-12.3c0-6.8-5.5-12.3-12.3-12.3c-6.8,0-12.3,5.5-12.3,12.3
		C356.2-515.7,361.7-510.2,368.5-510.2z M525.9-336.9c6.8,0,12.3-5.5,12.3-12.3c0-6.8-5.5-12.3-12.3-12.3c-6.8,0-12.3,5.5-12.3,12.3
		C513.6-342.4,519.1-336.9,525.9-336.9z M589.8,279c6.8,0,12.3-5.5,12.3-12.3c0-6.8-5.5-12.3-12.3-12.3s-12.3,5.5-12.3,12.3
		C577.5,273.5,583,279,589.8,279z M209.8-11.1c6.8,0,12.3-5.5,12.3-12.3s-5.5-12.3-12.3-12.3s-12.3,5.5-12.3,12.3
		S203-11.1,209.8-11.1z M322.4-286.5c2.4,0,4.3-1.9,4.3-4.3c0-2.4-1.9-4.3-4.3-4.3c-2.4,0-4.3,1.9-4.3,4.3
		C318-288.4,320-286.5,322.4-286.5z M216.6-339.3c2.4,0,4.3-1.9,4.3-4.3c0-2.4-1.9-4.3-4.3-4.3s-4.3,1.9-4.3,4.3
		C212.3-341.3,214.2-339.3,216.6-339.3z M26-285.2c2.4,0,4.3-1.9,4.3-4.3s-1.9-4.3-4.3-4.3s-4.3,1.9-4.3,4.3S23.6-285.2,26-285.2z
		 M521.6-68.9c2.4,0,4.3-1.9,4.3-4.3c0-2.4-1.9-4.3-4.3-4.3s-4.3,1.9-4.3,4.3C517.3-70.8,519.2-68.9,521.6-68.9z M634.7,63.9
		c2.4,0,4.3-1.9,4.3-4.3c0-2.4-1.9-4.3-4.3-4.3s-4.3,1.9-4.3,4.3C630.4,61.9,632.3,63.9,634.7,63.9z M472.4-367.6
		c2.4,0,4.3-1.9,4.3-4.3c0-2.4-1.9-4.3-4.3-4.3s-4.3,1.9-4.3,4.3C468.1-369.5,470-367.6,472.4-367.6z M546.2-269.3
		c2.4,0,4.3-1.9,4.3-4.3c0-2.4-1.9-4.3-4.3-4.3s-4.3,1.9-4.3,4.3C541.9-271.2,543.8-269.3,546.2-269.3z M316.8-302.4
		c4.1,0,7.4-3.3,7.4-7.4c0-4.1-3.3-7.4-7.4-7.4c-4.1,0-7.4,3.3-7.4,7.4C309.4-305.8,312.7-302.4,316.8-302.4z"/>
</g>

<g id="Group-20-Copy-7" transform="translate(565.000000, 497.000000)">
	
		<radialGradient id="globe_2_" cx="0.9253" cy="-736.1954" r="0.853" gradientTransform="matrix(87 0 0 -87 499 -64514)" gradientUnits="userSpaceOnUse">
		<stop  offset="0" style="stop-color:#EEEEEE;stop-opacity:0.1"/>
		<stop  offset="1" style="stop-color:#D8D8D8;stop-opacity:0.3"/>
	</radialGradient>
	<path id="globe" class="st6" d="M579.5-378c24,0,43.5-19.5,43.5-43.5S603.5-465,579.5-465S536-445.5,536-421.5S555.5-378,579.5-378
		z"/>
	<path id="vector" class="st7" d="M612.6-445.2l2.3,26.9L597.4-446L612.6-445.2z M612.6-445.2l14.4,26.9l-5.4-22L612.6-445.2z
		 M617.6-395.2l9.4-23.1h-12.2L617.6-395.2z M614.8-418.3l-19.9,29.5l22.7-6.4L614.8-418.3z M594.9-388.8l-14.8-31.8l-14.5,27.6
		L594.9-388.8z M548.5-419.1l17.8-30.4l-24.1,6.7L548.5-419.1z M538.9-439l3.4-3.8l17.5-20.3l-15.7,13.6L538.9-439z M534-419.2
		l8.3-23.6l-3.4,3.8L534-419.2z M548.5-419.1l-6.3-23.7l-8.3,23.6L548.5-419.1z M534-419.2l12.2,27.1l2.4-27L534-419.2z
		 M600.3-378.4l17.3-16.8l-22.7,6.4L600.3-378.4z M594.9-388.8l-22.2,12.7l27.6-2.3L594.9-388.8z M572.7-376.1l22.2-12.7l-29.3-4.1
		L572.7-376.1z M572.7-376.1l7.4,1.1l20.2-3.4L572.7-376.1z M546.2-392.1l-5.5-6.7l-6.6-20.3L546.2-392.1z M572.7-376.1l-26.6-16
		l11.8,11.6L572.7-376.1z M546.2-392.1l19.4-0.8l-17-26.1L546.2-392.1z M565.6-392.9l14.5-27.6l-31.6,1.5L565.6-392.9z M614.8-418.3
		L597.4-446l-17.3,25.5L614.8-418.3z M612.6-445.2l9,4.9l-4.1-6.7L612.6-445.2z M612.6-445.2l4.9-1.8l-12.5-12.7L612.6-445.2z
		 M612.6-445.2l-22.8-20l15.2,5.6L612.6-445.2z M612.6-445.2l-22.8-20l7.6,19.1L612.6-445.2z M559.8-463.1l30-2l-9.5-1.9
		L559.8-463.1z M566.3-449.4l23.4-15.7l-30,2L566.3-449.4z M566.3-449.4l31.1,3.4c0,0-5-12.8-7.6-19.1
		C589.8-465.1,566.3-449.4,566.3-449.4z M580.1-420.6l17.3-25.5l-31.1-3.4L580.1-420.6z"/>
	<path id="dots" class="st8" d="M594.4-388.8c0.3,0,0.6-0.3,0.6-0.6s-0.3-0.6-0.6-0.6s-0.6,0.3-0.6,0.6S594.1-388.8,594.4-388.8z
		 M579.6-420.4c0.3,0,0.6-0.3,0.6-0.6s-0.3-0.6-0.6-0.6c-0.3,0-0.6,0.3-0.6,0.6S579.3-420.4,579.6-420.4z M614.3-418.2
		c0.3,0,0.6-0.3,0.6-0.6s-0.3-0.6-0.6-0.6c-0.3,0-0.6,0.3-0.6,0.6S614-418.2,614.3-418.2z M596.9-445.8c0.3,0,0.6-0.3,0.6-0.6
		s-0.3-0.6-0.6-0.6c-0.3,0-0.6,0.3-0.6,0.6S596.6-445.8,596.9-445.8z M589.3-464.9c0.3,0,0.6-0.3,0.6-0.6s-0.3-0.6-0.6-0.6
		c-0.3,0-0.6,0.3-0.6,0.6S588.9-464.9,589.3-464.9z M612.1-445c0.3,0,0.6-0.3,0.6-0.6s-0.3-0.6-0.6-0.6c-0.3,0-0.6,0.3-0.6,0.6
		S611.7-445,612.1-445z M604.4-459.2c0.3,0,0.6-0.3,0.6-0.6s-0.3-0.6-0.6-0.6c-0.3,0-0.6,0.3-0.6,0.6S604.1-459.2,604.4-459.2z
		 M617-446.7c0.3,0,0.6-0.3,0.6-0.6s-0.3-0.6-0.6-0.6c-0.3,0-0.6,0.3-0.6,0.6S616.6-446.7,617-446.7z M621.1-440.1
		c0.3,0,0.6-0.3,0.6-0.6s-0.3-0.6-0.6-0.6c-0.3,0-0.6,0.3-0.6,0.6S620.8-440.1,621.1-440.1z M626.4-418.2c0.3,0,0.6-0.3,0.6-0.6
		s-0.3-0.6-0.6-0.6c-0.3,0-0.6,0.3-0.6,0.6S626-418.2,626.4-418.2z M617.1-395.2c0.3,0,0.6-0.3,0.6-0.6s-0.3-0.6-0.6-0.6
		c-0.3,0-0.6,0.3-0.6,0.6S616.8-395.2,617.1-395.2z M599.8-378.4c0.3,0,0.6-0.3,0.6-0.6s-0.3-0.6-0.6-0.6c-0.3,0-0.6,0.3-0.6,0.6
		S599.5-378.4,599.8-378.4z M572.4-376.1c0.3,0,0.6-0.3,0.6-0.6s-0.3-0.6-0.6-0.6c-0.3,0-0.6,0.3-0.6,0.6S572-376.1,572.4-376.1z
		 M565.1-392.9c0.3,0,0.6-0.3,0.6-0.6s-0.3-0.6-0.6-0.6c-0.3,0-0.6,0.3-0.6,0.6S564.7-392.9,565.1-392.9z M579.6-375
		c0.3,0,0.6-0.3,0.6-0.6s-0.3-0.6-0.6-0.6c-0.3,0-0.6,0.3-0.6,0.6S579.3-375,579.6-375z M557.4-380.5c0.3,0,0.6-0.3,0.6-0.6
		s-0.3-0.6-0.6-0.6c-0.3,0-0.6,0.3-0.6,0.6S557.1-380.5,557.4-380.5z M533.6-419.1c0.3,0,0.6-0.3,0.6-0.6s-0.3-0.6-0.6-0.6
		c-0.3,0-0.6,0.3-0.6,0.6S533.3-419.1,533.6-419.1z M540.1-398.9c0.3,0,0.6-0.3,0.6-0.6s-0.3-0.6-0.6-0.6c-0.3,0-0.6,0.3-0.6,0.6
		S539.8-398.9,540.1-398.9z M565.8-449.2c0.3,0,0.6-0.3,0.6-0.6s-0.3-0.6-0.6-0.6c-0.3,0-0.6,0.3-0.6,0.6S565.5-449.2,565.8-449.2z
		 M559.3-462.7c0.3,0,0.6-0.3,0.6-0.6s-0.3-0.6-0.6-0.6c-0.3,0-0.6,0.3-0.6,0.6S559-462.7,559.3-462.7z M541.8-442.6
		c0.3,0,0.6-0.3,0.6-0.6s-0.3-0.6-0.6-0.6c-0.3,0-0.6,0.3-0.6,0.6S541.4-442.6,541.8-442.6z M538.5-439.1c0.3,0,0.6-0.3,0.6-0.6
		s-0.3-0.6-0.6-0.6c-0.3,0-0.6,0.3-0.6,0.6S538.2-439.1,538.5-439.1z M543.7-449.3c0.3,0,0.6-0.3,0.6-0.6s-0.3-0.6-0.6-0.6
		c-0.3,0-0.6,0.3-0.6,0.6S543.3-449.3,543.7-449.3z M579.7-466.7c0.3,0,0.6-0.3,0.6-0.6s-0.3-0.6-0.6-0.6c-0.3,0-0.6,0.3-0.6,0.6
		S579.4-466.7,579.7-466.7z M545.7-392c0.3,0,0.6-0.3,0.6-0.6s-0.3-0.6-0.6-0.6c-0.3,0-0.6,0.3-0.6,0.6S545.3-392,545.7-392z
		 M548-418.9c0.3,0,0.6-0.3,0.6-0.6c0-0.3-0.3-0.6-0.6-0.6c-0.3,0-0.6,0.3-0.6,0.6C547.4-419.2,547.7-418.9,548-418.9z"/>
</g>
<g id="Group-20-Copy-6" transform="translate(148.000000, 460.000000)">
	
		<radialGradient id="globe_3_" cx="420.6089" cy="-701.9728" r="0.853" gradientTransform="matrix(147 0 0 -147 -61212 -103647)" gradientUnits="userSpaceOnUse">
		<stop  offset="0" style="stop-color:#EEEEEE;stop-opacity:0.1"/>
		<stop  offset="1" style="stop-color:#D8D8D8;stop-opacity:0.3"/>
	</radialGradient>
	<path id="globe_1_" class="st9" d="M617.5-310c40.6,0,73.5-32.9,73.5-73.5S658.1-457,617.5-457c-40.6,0-73.5,32.9-73.5,73.5
		S576.9-310,617.5-310z"/>
	<path id="vector_1_" class="st7" d="M675.1-427.8l4.1,48.2l-31.3-49.7L675.1-427.8z M675.1-427.8l25.9,48.2l-9.7-39.4L675.1-427.8z
		 M684.1-338.2l16.9-41.4h-21.8L684.1-338.2z M679.2-379.7l-35.8,52.9l40.7-11.5L679.2-379.7z M643.4-326.8l-26.6-57l-26.1,49.5
		L643.4-326.8z M560.1-381l32-54.5l-43.2,11.9L560.1-381z M542.8-416.8l6.1-6.8l31.5-36.5l-28.1,24.3L542.8-416.8z M534-381.2
		l14.9-42.3l-6.1,6.8L534-381.2z M560.1-381l-11.3-42.5L534-381.2L560.1-381z M534-381.2l21.8,48.6l4.3-48.4L534-381.2z
		 M653.1-308.1l31.1-30.2l-40.7,11.5L653.1-308.1z M643.4-326.8L603.5-304l49.5-4.1L643.4-326.8z M603.5-304l39.8-22.7l-52.7-7.4
		L603.5-304z M603.5-304l13.3,2l36.2-6.1L603.5-304z M555.8-332.7l-9.9-12L534-381.2L555.8-332.7z M603.5-304l-47.7-28.7l21.2,20.8
		L603.5-304z M555.8-332.7l34.9-1.5L560.1-381L555.8-332.7z M590.7-334.2l26.1-49.5l-56.7,2.7L590.7-334.2z M679.2-379.7l-31.3-49.7
		l-31.1,45.7L679.2-379.7z M675.1-427.8l16.2,8.8l-7.4-11.9L675.1-427.8z M675.1-427.8l8.8-3.2l-22.5-22.7L675.1-427.8z
		 M675.1-427.8l-41-35.8l27.3,10.1L675.1-427.8z M675.1-427.8l-41-35.8l13.7,34.2L675.1-427.8z M580.4-460l53.8-3.6L617-467
		L580.4-460z M592.1-435.5l42.1-28.1l-53.8,3.6L592.1-435.5z M592.1-435.5l55.8,6.1c0,0-9-23-13.7-34.2
		C634.2-463.6,592.1-435.5,592.1-435.5z M616.8-383.7l31.1-45.7l-55.8-6.1L616.8-383.7z"/>
	<path id="dots_1_" class="st8" d="M643.4-325.7c0.6,0,1.1-0.5,1.1-1.1s-0.5-1.1-1.1-1.1s-1.1,0.5-1.1,1.1S642.8-325.7,643.4-325.7z
		 M616.8-382.6c0.6,0,1.1-0.5,1.1-1.1s-0.5-1.1-1.1-1.1c-0.6,0-1.1,0.5-1.1,1.1S616.2-382.6,616.8-382.6z M679.2-378.5
		c0.6,0,1.1-0.5,1.1-1.1c0-0.6-0.5-1.1-1.1-1.1s-1.1,0.5-1.1,1.1C678.1-379,678.6-378.5,679.2-378.5z M647.9-428.2
		c0.6,0,1.1-0.5,1.1-1.1s-0.5-1.1-1.1-1.1s-1.1,0.5-1.1,1.1S647.3-428.2,647.9-428.2z M634.2-462.4c0.6,0,1.1-0.5,1.1-1.1
		s-0.5-1.1-1.1-1.1c-0.6,0-1.1,0.5-1.1,1.1S633.6-462.4,634.2-462.4z M675.2-426.6c0.6,0,1.1-0.5,1.1-1.1s-0.5-1.1-1.1-1.1
		c-0.6,0-1.1,0.5-1.1,1.1S674.6-426.6,675.2-426.6z M661.4-452.3c0.6,0,1.1-0.5,1.1-1.1s-0.5-1.1-1.1-1.1s-1.1,0.5-1.1,1.1
		S660.8-452.3,661.4-452.3z M684-429.8c0.6,0,1.1-0.5,1.1-1.1c0-0.6-0.5-1.1-1.1-1.1s-1.1,0.5-1.1,1.1
		C682.8-430.3,683.4-429.8,684-429.8z M691.4-417.9c0.6,0,1.1-0.5,1.1-1.1s-0.5-1.1-1.1-1.1c-0.6,0-1.1,0.5-1.1,1.1
		S690.8-417.9,691.4-417.9z M700.9-378.5c0.6,0,1.1-0.5,1.1-1.1c0-0.6-0.5-1.1-1.1-1.1s-1.1,0.5-1.1,1.1
		C699.7-379,700.3-378.5,700.9-378.5z M684.2-337.2c0.6,0,1.1-0.5,1.1-1.1s-0.5-1.1-1.1-1.1s-1.1,0.5-1.1,1.1
		S683.6-337.2,684.2-337.2z M653.1-307.1c0.6,0,1.1-0.5,1.1-1.1s-0.5-1.1-1.1-1.1s-1.1,0.5-1.1,1.1S652.5-307.1,653.1-307.1z
		 M603.8-303c0.6,0,1.1-0.5,1.1-1.1s-0.5-1.1-1.1-1.1c-0.6,0-1.1,0.5-1.1,1.1S603.1-303,603.8-303z M590.7-333.1
		c0.6,0,1.1-0.5,1.1-1.1s-0.5-1.1-1.1-1.1c-0.6,0-1.1,0.5-1.1,1.1S590.1-333.1,590.7-333.1z M616.8-301c0.6,0,1.1-0.5,1.1-1.1
		s-0.5-1.1-1.1-1.1c-0.6,0-1.1,0.5-1.1,1.1S616.2-301,616.8-301z M576.9-310.9c0.6,0,1.1-0.5,1.1-1.1s-0.5-1.1-1.1-1.1
		s-1.1,0.5-1.1,1.1S576.3-310.9,576.9-310.9z M534.1-380.1c0.6,0,1.1-0.5,1.1-1.1s-0.5-1.1-1.1-1.1c-0.6,0-1.1,0.5-1.1,1.1
		S533.5-380.1,534.1-380.1z M545.8-343.9c0.6,0,1.1-0.5,1.1-1.1s-0.5-1.1-1.1-1.1s-1.1,0.5-1.1,1.1S545.2-343.9,545.8-343.9z
		 M592-434.3c0.6,0,1.1-0.5,1.1-1.1s-0.5-1.1-1.1-1.1c-0.6,0-1.1,0.5-1.1,1.1S591.4-434.3,592-434.3z M580.3-458.6
		c0.6,0,1.1-0.5,1.1-1.1s-0.5-1.1-1.1-1.1s-1.1,0.5-1.1,1.1S579.7-458.6,580.3-458.6z M548.8-422.4c0.6,0,1.1-0.5,1.1-1.1
		s-0.5-1.1-1.1-1.1c-0.6,0-1.1,0.5-1.1,1.1S548.2-422.4,548.8-422.4z M542.9-416.1c0.6,0,1.1-0.5,1.1-1.1c0-0.6-0.5-1.1-1.1-1.1
		s-1.1,0.5-1.1,1.1C541.8-416.6,542.3-416.1,542.9-416.1z M552.2-434.5c0.6,0,1.1-0.5,1.1-1.1s-0.5-1.1-1.1-1.1s-1.1,0.5-1.1,1.1
		S551.5-434.5,552.2-434.5z M617-465.8c0.6,0,1.1-0.5,1.1-1.1c0-0.6-0.5-1.1-1.1-1.1c-0.6,0-1.1,0.5-1.1,1.1
		C615.9-466.3,616.4-465.8,617-465.8z M555.8-331.6c0.6,0,1.1-0.5,1.1-1.1s-0.5-1.1-1.1-1.1s-1.1,0.5-1.1,1.1
		S555.1-331.6,555.8-331.6z M560-379.9c0.6,0,1.1-0.5,1.1-1.1s-0.5-1.1-1.1-1.1c-0.6,0-1.1,0.5-1.1,1.1S559.4-379.9,560-379.9z"/>
</g>
<linearGradient id="Oval-9-Copy-6_1_" gradientUnits="userSpaceOnUse" x1="558.881" y1="-231.9048" x2="558.881" y2="-232.9048" gradientTransform="matrix(42 0 0 -42 -22891 -9692)">
	<stop  offset="0" style="stop-color:#EEEEEE"/>
	<stop  offset="1" style="stop-color:#D8D8D8"/>
</linearGradient>
<circle id="Oval-9-Copy-6" class="st10" cx="582" cy="69" r="21"/>
<linearGradient id="Oval-9-Copy_1_" gradientUnits="userSpaceOnUse" x1="567.3929" y1="-240.7143" x2="567.3929" y2="-241.7143" gradientTransform="matrix(112 0 0 -112 -62855 -27024)">
	<stop  offset="0" style="stop-color:#EEEEEE"/>
	<stop  offset="1" style="stop-color:#D8D8D8"/>
</linearGradient>
<circle id="Oval-9-Copy" class="st11" cx="693" cy="-8" r="56"/>
<linearGradient id="Oval-9-Copy-2_1_" gradientUnits="userSpaceOnUse" x1="568.4432" y1="-241.8014" x2="568.4432" y2="-242.8014" gradientTransform="matrix(141 0 0 -141 -79325 -33889)">
	<stop  offset="0" style="stop-color:#EEEEEE"/>
	<stop  offset="1" style="stop-color:#D8D8D8"/>
</linearGradient>
<circle id="Oval-9-Copy-2" class="st12" cx="825.5" cy="275.5" r="70.5"/>
<g id="Group-25-Copy" transform="translate(379.903209, 633.875974) rotate(-336.000000) translate(-379.903209, -633.875974) translate(343.903209, 601.875974)">
	
		<linearGradient id="Path-9_1_" gradientUnits="userSpaceOnUse" x1="-158.5056" y1="-838.3882" x2="-158.5056" y2="-839.3882" gradientTransform="matrix(42.8675 -22.2847 -19.0859 -50.052 -8886.3691 -46139.3516)">
		<stop  offset="0" style="stop-color:#000000;stop-opacity:0"/>
		<stop  offset="1" style="stop-color:#000000;stop-opacity:0.1"/>
	</linearGradient>
	<polygon id="Path-9_3_" class="st13" points="343.8,-644.1 296.8,-589.3 343.8,-597.1 	"/>
	
		<linearGradient id="Path-9_2_" gradientUnits="userSpaceOnUse" x1="-172.2847" y1="-833.5573" x2="-172.7036" y2="-833.7054" gradientTransform="matrix(22.5114 -25.6967 -10.0228 -57.7155 -4116.2441 -53152.3242)">
		<stop  offset="0" style="stop-color:#000000;stop-opacity:0"/>
		<stop  offset="1" style="stop-color:#000000;stop-opacity:0.1"/>
	</linearGradient>
	<polygon id="Path-9_4_" class="st14" points="343.8,-644.1 368.4,-580.9 343.8,-597.1 	"/>
	
		<linearGradient id="Path-9_6_" gradientUnits="userSpaceOnUse" x1="-147.7552" y1="-827.6889" x2="-147.5993" y2="-829.5217" gradientTransform="matrix(65.379 -6.6108 -29.1087 -14.848 -14109.6602 -13876.5986)">
		<stop  offset="0" style="stop-color:#000000;stop-opacity:0"/>
		<stop  offset="1" style="stop-color:#000000;stop-opacity:0.1"/>
	</linearGradient>
	<polygon id="Path-9_5_" class="st15" points="368.4,-580.9 296.8,-589.3 343.8,-597.1 	"/>
</g>
<g id="Group-27-Copy-2" transform="translate(194.001966, 673.366153) rotate(-14.000000) translate(-194.001966, -673.366153) translate(171.001966, 649.866153)">
	
		<linearGradient id="Rectangle-2_1_" gradientUnits="userSpaceOnUse" x1="591.1693" y1="-762.9197" x2="590.3973" y2="-763.0735" gradientTransform="matrix(22.3168 8.9511 5.5642 -35.9009 -8272.8174 -32981.1016)">
		<stop  offset="0" style="stop-color:#000000;stop-opacity:0.1"/>
		<stop  offset="1" style="stop-color:#000000;stop-opacity:0.2"/>
	</linearGradient>
	<polygon id="Rectangle-2_2_" class="st16" points="676.4,-315.2 653.4,-303.7 653.4,-278.2 676.4,-289.6 	"/>
	
		<linearGradient id="Rectangle-2_4_" gradientUnits="userSpaceOnUse" x1="591.1962" y1="-762.8474" x2="590.1993" y2="-763.158" gradientTransform="matrix(22.3168 8.9511 5.5642 -35.9009 -8295.8174 -32981.1016)">
		<stop  offset="0" style="stop-color:#000000;stop-opacity:0.2"/>
		<stop  offset="0.9971" style="stop-color:#000000;stop-opacity:0.3"/>
		<stop  offset="1" style="stop-color:#000000;stop-opacity:0.1"/>
	</linearGradient>
	<polygon id="Rectangle-2_3_" class="st17" points="653.4,-303.7 653.4,-278.2 630.4,-289.6 630.4,-315.2 	"/>
	
		<linearGradient id="Rectangle-2-Copy_2_" gradientUnits="userSpaceOnUse" x1="613.1443" y1="-741.8898" x2="613.1443" y2="-742.8898" gradientTransform="matrix(-44.6336 5.0804 -11.1284 -20.3762 19764.1719 -18557.0508)">
		<stop  offset="0" style="stop-color:#000000;stop-opacity:0"/>
		<stop  offset="1" style="stop-color:#000000;stop-opacity:0.1"/>
	</linearGradient>
	<polygon id="Rectangle-2-Copy_1_" class="st18" points="653.4,-325.2 676.4,-315.2 653.4,-304.2 630.4,-315.2 	"/>
</g>
</svg>
