<?xml version="1.0" encoding="utf-8"?>
<!-- Generator: Adobe Illustrator 20.1.0, SVG Export Plug-In . SVG Version: 6.00 Build 0)  -->
<svg version="1.1" id="Layer_1" xmlns="http://www.w3.org/2000/svg" xmlns:xlink="http://www.w3.org/1999/xlink" x="0px" y="0px"
	 viewBox="0 0 251.2 251.2" style="enable-background:new 0 0 251.2 251.2;" xml:space="preserve">
<style type="text/css">
	.st0{fill:#446CBC;}
	.st1{fill:#29CEBA;}
</style>
<g>
	<path class="st0" d="M126,12.1c-47.5,0-85.9,40-85.9,85.9S119,242,126,242s85.9-96.5,85.9-144S173.5,12.1,126,12.1z M126,149.8
		c-28.6,0-51.8-23.2-51.8-51.8S97.4,46.3,126,46.3s51.8,23.2,51.8,51.8S154.7,149.8,126,149.8z"/>
</g>
<g>
	<path class="st1" d="M148,89.5v33.1c0,2.1-1.7,3.8-3.8,3.8h-5.2H108c-2.1,0-3.8-1.7-3.8-3.8V89.5"/>
	<path class="st1" d="M98.3,95.4l24.3-24.3c1.9-1.9,5-1.9,7,0l24.3,24.3c1.2,1.2,0.4,3.2-1.3,3.2H99.7
		C97.9,98.7,97.1,96.6,98.3,95.4z"/>
</g>
</svg>
